# Blender v2.81 (sub 16) OBJ File: '新みかん_顔無_ボーン追加_入れ_色付け_動き制限無し_アニメーション.blend'
# www.blender.org
mtllib mikan3d.mtl
o Plane
v -0.600000 1.000000 0.360000
v -0.600000 1.000000 -0.360000
v -0.400000 1.000000 0.120000
v -0.400000 1.000000 -0.120000
v -0.200000 1.000000 0.120000
v -0.200000 1.000000 -0.120000
v -0.600000 2.228178 0.120000
v -0.600000 2.228177 0.360000
v -0.600000 2.228177 -0.360000
v -0.600000 2.443007 -0.360000
v -0.600000 2.228178 -0.120000
v -0.600000 2.443007 0.360000
v -0.600000 2.410580 0.120000
v -0.600000 2.410580 0.360000
v -0.600000 2.410580 -0.360000
v -0.600000 2.410580 -0.120000
v -0.400000 0.172433 0.120000
v -0.400000 0.172433 -0.120000
v -0.200000 0.172433 0.120000
v -0.200000 0.172433 -0.120000
v -0.665699 1.795395 -0.120000
v -0.846284 1.811814 -0.120000
v -0.938495 1.310458 -0.170000
v -0.636066 1.527352 -0.170000
v -0.867426 1.547487 0.120000
v -0.867426 1.547487 -0.120000
v -0.685761 1.531627 -0.120000
v -0.686448 1.532220 0.120000
v -0.100000 3.565796 0.120000
v -0.100000 3.565796 -0.120000
v -0.100000 4.552125 -0.120000
v -0.100000 4.552125 0.120000
v -0.158076 4.925376 -0.177075
v -0.229617 4.806141 -0.220000
v -0.158076 4.552125 -0.177075
v -0.229616 4.671359 -0.220000
v -0.158076 4.552125 0.177076
v -0.229616 4.671359 0.220000
v -0.158076 4.925376 0.177076
v -0.229616 4.806141 0.220000
v -0.657611 1.286134 -0.170000
v -0.929890 1.571813 -0.170000
v -0.637197 1.528212 0.170000
v -0.657425 1.285981 0.170000
v -0.942807 1.316679 0.170000
v -0.917236 1.551845 0.170000
v -0.844559 1.809126 0.120000
v -0.676383 1.803581 0.120000
v -0.420000 0.001617 -0.320000
v -0.420000 0.172433 -0.320000
v -0.180000 0.172433 -0.320000
v -0.180000 0.001617 -0.320000
v -0.420000 0.172433 0.140000
v -0.420000 0.001617 0.140000
v -0.180000 0.172433 0.140000
v -0.180000 0.001617 0.140000
v -1.049926 3.565796 -0.560000
v -1.049926 2.443007 -0.560000
v -1.049926 2.443007 0.560000
v -1.049926 3.565796 0.560000
v 0.600000 1.000000 0.360000
v 0.600000 1.000000 -0.360000
v 0.400000 1.000000 0.120000
v 0.400000 1.000000 -0.120000
v 0.200000 1.000000 0.120000
v 0.200000 1.000000 -0.120000
v 0.600000 2.228178 0.120000
v 0.600000 2.228177 0.360000
v 0.600000 2.228177 -0.360000
v 0.600000 2.443007 -0.360000
v 0.600000 2.228178 -0.120000
v 0.600000 2.443007 0.360000
v 0.600000 2.410580 0.120000
v 0.600000 2.410580 0.360000
v 0.600000 2.410580 -0.360000
v 0.600000 2.410580 -0.120000
v 0.400000 0.172433 0.120000
v 0.400000 0.172433 -0.120000
v 0.200000 0.172433 0.120000
v 0.200000 0.172433 -0.120000
v -0.668429 1.863572 -0.120000
v -0.839634 1.872302 -0.120000
v 0.939140 1.311388 -0.170000
v 0.636158 1.527422 -0.170000
v 0.867432 1.547496 0.120000
v 0.867597 1.547723 -0.120000
v 0.688192 1.533725 -0.120000
v 0.685993 1.531828 0.120000
v 0.100000 3.565796 0.120000
v 0.100000 3.565796 -0.120000
v 0.100000 4.552125 -0.120000
v 0.100000 4.552125 0.120000
v 0.158075 4.925376 -0.177075
v 0.229616 4.806141 -0.220000
v 0.158075 4.552125 -0.177075
v 0.229616 4.671359 -0.220000
v 0.158075 4.552125 0.177076
v 0.229616 4.671359 0.220000
v 0.158075 4.925376 0.177076
v 0.229616 4.806141 0.220000
v 0.662859 1.290478 -0.170000
v 0.918022 1.553086 -0.170000
v 0.636168 1.527430 0.170000
v 0.659767 1.287920 0.170000
v 0.938440 1.310378 0.170000
v 0.918851 1.554394 0.170000
v -0.844948 1.881011 0.120000
v -0.661498 1.858514 0.120000
v 0.420000 0.001617 -0.320000
v 0.420000 0.172433 -0.320000
v 0.180000 0.172433 -0.320000
v 0.180000 0.001617 -0.320000
v 0.420000 0.172433 0.140000
v 0.420000 0.001617 0.140000
v 0.180000 0.172433 0.140000
v 0.180000 0.001617 0.140000
v 1.049926 3.565796 -0.560000
v 1.049926 2.443007 -0.560000
v 1.043629 3.565796 -0.560000
v 1.049926 2.443007 0.560000
v 1.049926 3.565796 0.560000
v -0.100000 3.852802 -0.120000
v -0.100000 3.852802 0.120000
v 0.100000 3.852802 -0.120000
v 0.100000 3.852802 0.120000
v -0.100000 4.104883 -0.120000
v -0.100000 4.104883 0.120000
v 0.100000 4.104883 -0.120000
v 0.100000 4.104883 0.120000
v -0.100000 4.397623 -0.120000
v -0.100000 4.397623 0.120000
v 0.100000 4.397623 -0.120000
v 0.100000 4.397623 0.120000
v -1.049926 3.004402 -0.560000
v 1.046778 3.565796 -0.560000
v 1.049926 3.004402 -0.560000
v -0.000000 2.443007 -0.560000
v -0.003149 3.565796 -0.560000
v -1.049926 2.723704 -0.560000
v 1.048352 3.565796 -0.560000
v 1.049926 2.723704 -0.560000
v 0.524963 2.443007 -0.560000
v 0.520240 3.565796 -0.560000
v -1.049926 3.285099 -0.560000
v 1.045204 3.565796 -0.560000
v 1.049926 3.285099 -0.560000
v -0.524963 2.443007 -0.560000
v -0.526537 3.565796 -0.560000
v 0.200000 0.554030 -0.120000
v 0.200000 0.554030 0.120000
v 0.400000 0.554030 0.120000
v 0.400000 0.554030 -0.120000
v 0.400000 0.617231 -0.120000
v 0.400000 0.617231 0.120000
v 0.200000 0.617231 0.120000
v 0.200000 0.617231 -0.120000
v -0.400000 0.612052 -0.120000
v -0.400000 0.612052 0.120000
v -0.200000 0.612052 0.120000
v -0.200000 0.612052 -0.120000
v -0.200000 0.555293 -0.120000
v -0.200000 0.555293 0.120000
v -0.400000 0.555293 0.120000
v -0.400000 0.555293 -0.120000
v 0.000000 1.000000 -0.360000
v -0.000000 2.228177 -0.360000
v -0.000000 2.410580 -0.360000
v -0.000000 2.443007 -0.360000
v -0.000000 2.228177 0.360000
v -0.000000 2.410580 0.360000
v -0.000000 2.443007 0.360000
v 0.000000 1.000000 0.360000
v -0.600000 1.614089 -0.360000
v 0.600000 1.614089 -0.360000
v -0.000000 1.614089 -0.360000
v -0.600000 1.619621 0.360000
v 0.600000 1.619621 0.360000
v 0.000000 1.619621 0.360000
v 0.441362 1.000000 -0.360000
v -0.441412 1.000000 -0.360000
v 0.300000 1.614089 -0.360000
v -0.000000 1.940571 -0.360000
v -0.300000 1.614089 -0.360000
v -0.441099 1.000000 0.360000
v 0.441362 1.000000 0.360000
v 0.300000 1.619621 0.360000
v 0.000000 1.942855 0.360000
v -0.299787 1.619621 0.360000
v 0.657532 1.853750 0.120000
v 0.839241 1.869647 0.120000
v 0.839241 1.869647 -0.120000
v 0.657532 1.853749 -0.120000
v 0.663125 1.789829 0.120000
v 0.844851 1.805754 0.120000
v 0.844833 1.805726 -0.120000
v 0.663125 1.789829 -0.120000
vt 0.516774 0.081095
vt 0.549116 0.084142
vt 0.538087 0.088861
vt 0.526813 0.087789
vt 0.525082 0.109631
vt 0.513576 0.114481
vt 0.514376 0.106135
vt 0.515175 0.097788
vt 0.546500 0.099777
vt 0.545191 0.107595
vt 0.543883 0.115413
vt 0.535505 0.110223
vt 0.535997 0.105188
vt 0.525352 0.104281
vt 0.226787 0.066898
vt 0.226067 0.075703
vt 0.220484 0.070979
vt 0.220826 0.070024
vt 0.519125 0.039723
vt 0.479692 0.045898
vt 0.468941 0.033871
vt 0.517752 0.030782
vt 0.585324 0.041617
vt 0.547793 0.037147
vt 0.547961 0.029274
vt 0.597034 0.027204
vt 0.096004 0.126823
vt 0.092998 0.128779
vt 0.064332 0.036704
vt 0.132542 0.024313
vt 0.100870 0.133739
vt 0.103876 0.131783
vt 0.132542 0.223858
vt 0.064332 0.236249
vt 0.498066 0.063338
vt 0.567220 0.062879
vt 0.063653 0.534407
vt 0.109667 0.408751
vt 0.115677 0.407075
vt 0.185164 0.708848
vt 0.154786 0.665238
vt 0.124409 0.621628
vt 0.094031 0.578018
vt 0.083038 0.838117
vt 0.096373 0.782499
vt 0.096945 0.782500
vt 0.084472 0.838312
vt 0.886865 0.908909
vt 0.886865 0.857338
vt 0.963615 0.857338
vt 0.963615 0.908909
vt 0.105418 0.406886
vt 0.082105 0.430518
vt 0.212979 0.073381
vt 0.218939 0.070256
vt 0.213699 0.064577
vt 0.219282 0.069300
vt 0.932824 0.170600
vt 0.904966 0.031657
vt 0.910842 0.032538
vt 0.927059 0.167707
vt 0.208817 0.061571
vt 0.231024 0.064086
vt 0.775469 0.978794
vt 0.760184 0.947387
vt 0.843390 0.947387
vt 0.828106 0.978794
vt 0.113046 0.391780
vt 0.123485 0.396027
vt 0.125015 0.398644
vt 0.727155 0.885586
vt 0.606293 0.885586
vt 0.625121 0.852182
vt 0.708327 0.852182
vt 0.760184 0.853878
vt 0.843390 0.853878
vt 0.862219 0.887282
vt 0.741356 0.887282
vt 0.084822 0.836315
vt 0.097183 0.781285
vt 0.096063 0.824713
vt 0.076832 0.822555
vt 0.054604 0.778882
vt 0.138086 0.775967
vt 0.949017 0.041144
vt 0.950762 0.040752
vt 0.950762 0.161796
vt 0.948905 0.158074
vt 0.640406 0.977098
vt 0.625121 0.945690
vt 0.708327 0.945690
vt 0.693043 0.977098
vt 0.741356 0.913982
vt 0.862219 0.913982
vt 0.606293 0.912286
vt 0.727155 0.912286
vt 0.387893 0.919279
vt 0.595915 0.919279
vt 0.575622 0.955283
vt 0.408187 0.955283
vt 0.595915 0.890500
vt 0.387893 0.890500
vt 0.408187 0.854496
vt 0.575622 0.854496
vt 0.973487 0.027300
vt 0.981867 0.011673
vt 0.965299 0.149698
vt 0.965299 0.052850
vt 0.970659 0.045707
vt 0.970659 0.156841
vt 0.981867 0.190875
vt 0.971322 0.178437
vt 0.930124 0.185670
vt 0.938513 0.173529
vt 0.230949 0.078708
vt 0.208742 0.076194
vt 0.212335 0.176196
vt 0.206194 0.179557
vt 0.207047 0.163682
vt 0.212037 0.167368
vt 0.091097 0.141457
vt 0.099503 0.118794
vt 0.105777 0.119104
vt 0.097371 0.141768
vt 0.027986 0.140462
vt 0.042465 0.136739
vt 0.025445 0.156738
vt 0.037385 0.144884
vt 0.889351 0.038222
vt 0.922321 0.168014
vt 0.914824 0.165134
vt 0.895046 0.040305
vt 0.938513 0.016410
vt 0.937754 0.014962
vt 0.920228 0.127418
vt 0.929347 0.122172
vt 0.937182 0.019834
vt 0.905011 0.032810
vt 0.466553 0.031435
vt 0.599599 0.024392
vt 0.231362 0.162314
vt 0.298592 0.126736
vt 0.284107 0.218612
vt 0.230509 0.178189
vt 0.597035 0.098525
vt 0.585083 0.098165
vt 0.517342 0.156968
vt 0.516067 0.165576
vt 0.470390 0.162354
vt 0.481204 0.151049
vt 0.584841 0.154713
vt 0.597036 0.169846
vt 0.545552 0.167278
vt 0.545390 0.159520
vt 0.032280 0.114953
vt 0.007494 0.050009
vt 0.056366 0.060900
vt 0.045223 0.121692
vt 0.031580 0.172814
vt 0.056366 0.237758
vt 0.007494 0.226866
vt 0.018638 0.166075
vt 0.497244 0.132930
vt 0.564362 0.135063
vt 0.565077 0.117017
vt 0.136868 0.444357
vt 0.107747 0.393670
vt 0.041904 0.292914
vt 0.065645 0.330775
vt 0.089386 0.368635
vt 0.113127 0.406496
vt 0.138745 0.396798
vt 0.133936 0.389434
vt 0.139290 0.444867
vt 0.150759 0.510862
vt 0.162227 0.576858
vt 0.173696 0.642853
vt 0.105060 0.395969
vt 0.073968 0.378186
vt 0.138963 0.215135
vt 0.153448 0.123259
vt 0.225221 0.165675
vt 0.497860 0.080749
vt 0.515974 0.089448
vt 0.467328 0.098041
vt 0.469665 0.098112
vt 0.355274 0.959328
vt 0.328290 0.979995
vt 0.214823 0.979995
vt 0.187839 0.959328
vt 0.083425 0.836080
vt 0.096531 0.781068
vt 0.435171 0.975950
vt 0.548638 0.975950
vt 0.852758 0.026130
vt 0.859630 0.173206
vt 0.864631 0.183058
vt 0.864631 0.013559
vt 0.375568 0.923324
vt 0.167546 0.923324
vt 0.167546 0.894546
vt 0.187839 0.858542
vt 0.355274 0.858542
vt 0.375568 0.894546
vt 0.831263 0.048598
vt 0.829567 0.050891
vt 0.849843 0.205945
vt 0.850430 0.182803
vt 0.847099 0.063997
vt 0.851859 0.056188
vt 0.838655 0.176661
vt 0.839513 0.168574
vt 0.884764 0.034713
vt 0.892491 0.023427
vt 0.225518 0.174503
vt 0.901825 0.083021
vt 0.893980 0.083878
vt 0.097665 0.131068
vt 0.097362 0.130466
vt 0.035875 0.147305
vt 0.021396 0.151028
vt 0.038416 0.131028
vt 0.026476 0.142883
vt 0.099512 0.130096
vt 0.099210 0.129493
vt 0.886300 0.179220
vt 0.884764 0.197119
vt 0.922736 0.167867
vt 0.887167 0.193286
vt 0.599599 0.172775
vt 0.468104 0.164647
vt 0.139008 0.689616
vt 0.138470 0.586441
vt 0.137932 0.483267
vt 0.137395 0.380093
vt 0.136857 0.276918
vt 0.334040 0.276918
vt 0.531223 0.276918
vt 0.728406 0.276918
vt 0.925589 0.276918
vt 0.926639 0.380097
vt 0.927690 0.483276
vt 0.928740 0.586455
vt 0.929790 0.689634
vt 0.733199 0.689633
vt 0.536607 0.689633
vt 0.340016 0.689633
vt 0.143424 0.689633
vt 0.142320 0.689629
vt 0.141216 0.689624
vt 0.140112 0.689620
vt 0.078036 0.404352
vt 0.058216 0.474034
vt 0.052779 0.413660
vt 0.047342 0.353287
vt 0.108079 0.372169
vt 0.112861 0.375879
vt 0.088244 0.384310
vt 0.089903 0.376543
vt 0.098991 0.374356
vt 0.137473 0.444485
vt 0.138079 0.444612
vt 0.138685 0.444739
vt 0.069621 0.850530
vt 0.011966 0.899802
vt 0.138086 0.945080
vt 0.092997 0.855291
vt 0.087590 0.833477
vt 0.081782 0.832572
vt 0.079920 0.841111
vt 0.086393 0.842231
vt 0.219418 0.170126
vt 0.219715 0.171097
vt 0.217841 0.170775
vt 0.218137 0.171746
vt 0.287429 0.025647
vt 0.297481 0.118110
vt 0.142285 0.022169
vt 0.152337 0.114633
vt 0.566506 0.080925
vt 0.547808 0.091959
vt 0.599599 0.098584
vt 0.488515 0.098314
vt 0.497450 0.115532
vt 0.480448 0.098474
vt 0.525997 0.093606
vt 0.537606 0.094742
vt 0.565791 0.098971
vt 0.576048 0.098542
vt 0.497655 0.098134
vn 0.0000 -1.0000 0.0000
vn 0.0000 0.0000 -1.0000
vn -1.0000 0.0000 0.0000
vn -0.0000 0.0000 1.0000
vn 0.0000 1.0000 0.0000
vn 0.9981 -0.0562 0.0247
vn -0.9965 0.0834 0.0040
vn 1.0000 0.0000 0.0000
vn 0.0000 0.3387 0.9409
vn 0.0000 0.3387 -0.9409
vn 0.0834 0.9965 -0.0022
vn 0.0000 -0.3387 -0.9409
vn 0.0000 -0.3387 0.9409
vn -0.8575 -0.5145 0.0000
vn -0.8575 0.5145 -0.0000
vn 0.0841 0.9965 -0.0030
vn -0.0967 -0.9953 0.0083
vn 0.9963 -0.0861 0.0015
vn -0.9975 0.0687 0.0136
vn 0.2474 0.9685 0.0279
vn 0.9951 -0.0983 0.0084
vn 0.9145 0.4045 -0.0000
vn -0.9957 -0.0928 -0.0049
vn 0.9962 0.0875 0.0003
vn -0.1045 0.9945 0.0028
vn 0.1238 0.9759 0.1799
vn 0.8575 -0.5145 0.0000
vn 0.8575 0.5145 0.0000
vn -0.0914 0.9955 -0.0234
vn 0.0779 -0.9969 -0.0048
vn -0.9945 -0.1050 -0.0049
vn 0.9965 0.0835 -0.0002
vn -0.0857 0.9963 -0.0080
vn -0.1195 0.9928 -0.0017
vn -0.9884 -0.1519 0.0000
vn 0.9846 -0.1742 -0.0161
vn -0.9105 0.4132 -0.0176
vn 0.9962 0.0873 -0.0000
vn -0.9962 -0.0872 -0.0000
vn -0.9989 0.0472 -0.0081
usemtl マテリアル
s off
f 1/1/1 2/2/1 4/3/1 3/4/1
f 63/5/1 61/6/1 185/7/1 172/8/1 165/9/1 179/10/1 62/11/1 64/12/1 66/13/1 65/14/1
f 164/15/2 161/16/2 20/17/2 18/18/2
f 64/12/1 62/11/1 61/6/1 63/5/1
f 7/19/3 8/20/3 14/21/3 13/22/3
f 9/23/3 11/24/3 16/25/3 15/26/3
f 48/27/4 47/28/4 25/29/4 28/30/4
f 22/31/2 21/32/2 27/33/2 26/34/2
f 2/2/3 1/1/3 176/35/3 173/36/3
f 58/37/3 59/38/3 60/39/3 57/40/3 144/41/3 134/42/3 139/43/3
f 133/44/4 92/45/4 32/46/4 131/47/4
f 93/48/5 33/49/5 39/50/5 99/51/5
f 21/32/6 48/27/6 28/30/6 27/33/6
f 47/28/7 22/31/7 26/34/7 25/29/7
f 12/52/1 59/38/1 58/37/1 10/53/1
f 161/16/8 162/54/8 19/55/8 20/17/8
f 163/56/3 164/15/3 18/18/3 17/57/3
f 162/54/4 163/56/4 17/57/4 19/55/4
f 51/58/8 55/59/8 56/60/8 52/61/8
f 164/15/3 163/56/3 158/62/3 157/63/3
f 31/64/1 35/65/1 95/66/1 91/67/1
f 60/39/5 121/68/5 89/69/5 29/70/5
f 40/71/9 100/72/9 99/73/9 39/74/9
f 33/75/10 93/76/10 94/77/10 34/78/10
f 130/79/3 131/47/3 32/46/3 31/80/3
f 122/81/2 124/82/2 90/83/2 30/84/2
f 28/85/11 43/86/11 24/87/11 27/88/11
f 92/89/1 97/90/1 37/91/1 32/92/1
f 36/93/12 96/94/12 95/66/12 35/65/12
f 34/78/2 94/77/2 96/94/2 36/93/2
f 97/90/13 98/95/13 38/96/13 37/91/13
f 38/97/14 36/98/14 35/99/14 37/100/14
f 34/101/15 40/102/15 39/103/15 33/104/15
f 36/98/3 38/97/3 40/102/3 34/101/3
f 43/86/16 28/85/16 25/105/16 46/106/16
f 41/107/17 44/108/17 45/109/17 23/110/17
f 43/86/18 44/108/18 41/107/18 24/87/18
f 46/106/19 42/111/19 23/110/19 45/109/19
f 42/111/2 24/87/2 41/107/2 23/110/2
f 45/109/4 44/108/4 43/86/4 46/106/4
f 46/106/20 25/105/20 26/112/20 42/111/20
f 50/113/2 51/58/2 52/61/2 49/114/2
f 160/115/2 161/16/2 164/15/2 157/63/2
f 159/116/8 162/54/8 161/16/8 160/115/8
f 155/117/4 150/118/4 151/119/4 154/120/4
f 108/121/21 48/27/21 21/32/21 81/122/21
f 21/32/2 22/31/2 82/123/2 81/122/2
f 107/124/4 47/28/4 48/27/4 108/121/4
f 73/125/22 190/126/22 191/127/22 76/128/22
f 110/129/8 113/130/8 114/131/8 109/132/8
f 53/133/4 54/134/4 56/60/4 55/59/4
f 50/113/5 18/135/5 20/136/5 51/58/5
f 54/134/1 49/114/1 52/61/1 56/60/1
f 17/137/5 18/135/5 50/113/5 53/133/5 55/59/5 51/58/5 20/136/5 19/138/5
f 49/114/3 54/134/3 53/133/3 50/113/3
f 12/139/3 10/140/3 15/26/3 16/25/3 13/22/3 14/21/3
f 152/141/2 78/142/2 80/143/2 149/144/2
f 9/23/2 167/145/2 166/146/2
f 67/147/8 73/148/8 74/149/8 68/150/8
f 69/151/8 75/152/8 76/153/8 71/154/8
f 193/155/4 88/156/4 85/157/4 194/158/4
f 195/159/2 86/160/2 87/161/2 196/162/2
f 71/154/8 67/147/8 68/150/8 177/163/8 174/164/8 69/151/8
f 181/165/2 174/164/2 62/11/2 179/10/2
f 38/96/4 98/95/4 100/72/4 40/71/4
f 117/166/8 121/68/8 120/167/8 118/168/8 141/169/8 136/170/8 146/171/8
f 57/40/5 30/172/5 90/173/5 119/174/5 143/175/5 138/176/5 148/177/5
f 29/70/5 30/172/5 57/40/5 60/39/5
f 196/162/23 87/161/23 88/156/23 193/155/23
f 194/158/24 85/157/24 86/160/24 195/159/24
f 118/168/1 120/167/1 72/178/1 70/179/1
f 149/144/3 80/143/3 79/180/3 150/118/3
f 151/119/8 77/181/8 78/142/8 152/141/8
f 150/118/4 79/180/4 77/181/4 151/119/4
f 151/119/8 152/141/8 153/182/8 154/120/8
f 188/183/4 176/35/4 1/1/4 184/184/4
f 171/185/4 12/139/4 14/21/4 170/186/4
f 97/187/1 92/188/1 91/189/1 95/190/1
f 132/191/8 91/192/8 92/45/8 133/44/8
f 32/193/1 37/100/1 35/99/1 31/194/1
f 88/195/25 87/196/25 84/197/25 103/198/25
f 27/88/26 24/87/26 42/111/26 26/112/26
f 98/199/27 97/187/27 95/190/27 96/200/27
f 94/201/28 93/202/28 99/203/28 100/204/28
f 96/200/8 94/201/8 100/204/8 98/199/8
f 103/198/29 106/205/29 85/206/29 88/195/29
f 101/207/30 83/208/30 105/209/30 104/210/30
f 103/198/31 84/197/31 101/207/31 104/210/31
f 106/205/32 105/209/32 83/208/32 102/211/32
f 102/211/2 83/208/2 101/207/2 84/197/2
f 105/209/4 106/205/4 103/198/4 104/210/4
f 84/197/33 87/196/33 86/212/33 102/211/33
f 102/211/34 86/212/34 85/206/34 106/205/34
f 109/132/2 112/213/2 111/214/2 110/129/2
f 152/141/2 149/144/2 156/215/2 153/182/2
f 110/129/5 111/214/5 80/216/5 78/217/5
f 156/215/3 149/144/3 150/118/3 155/117/3
f 11/218/2 81/122/2 82/123/2 16/219/2
f 71/220/35 192/221/35 189/222/35 67/223/35
f 76/128/2 191/127/2 192/221/2 71/220/2
f 67/223/4 189/222/4 190/126/4 73/125/4
f 7/224/4 13/225/4 107/124/4 108/121/4
f 112/213/3 116/226/3 115/227/3 111/214/3
f 110/129/5 78/217/5 77/228/5 79/229/5 80/216/5 111/214/5 115/227/5 113/130/5
f 113/130/4 115/227/4 116/226/4 114/131/4
f 114/131/1 116/226/1 112/213/1 109/132/1
f 73/148/8 76/153/8 75/152/8 70/230/8 72/231/8 74/149/8
f 167/145/2 75/152/2 69/151/2
f 117/232/2 146/233/2 136/234/2 141/235/2 118/236/2 142/237/2 137/238/2 147/239/2 58/240/2 139/241/2 134/242/2 144/243/2 57/244/2 148/245/2 138/246/2 143/247/2 119/248/2 145/249/2 135/250/2 140/251/2
f 118/168/1 70/179/1 168/252/1 10/53/1 58/37/1 147/253/1 137/254/1 142/255/1
f 72/256/1 120/257/1 59/258/1 12/259/1 171/260/1
f 89/69/5 121/68/5 117/166/5 140/261/5 135/262/5 145/263/5 119/174/5 90/173/5
f 108/121/36 81/122/36 11/218/36 7/224/36
f 16/219/37 82/123/37 107/124/37 13/225/37
f 90/83/8 124/82/8 125/264/8 89/265/8
f 30/84/3 29/266/3 123/267/3 122/81/3
f 121/68/4 60/39/4 59/38/4 120/167/4
f 126/268/2 128/269/2 124/82/2 122/81/2
f 89/265/4 125/264/4 123/267/4 29/266/4
f 124/82/8 128/269/8 129/270/8 125/264/8
f 122/81/3 123/267/3 127/271/3 126/268/3
f 130/79/2 132/191/2 128/269/2 126/268/2
f 125/264/4 129/270/4 127/271/4 123/267/4
f 128/269/8 132/191/8 133/44/8 129/270/8
f 126/268/3 127/271/3 131/47/3 130/79/3
f 31/80/2 91/192/2 132/191/2 130/79/2
f 64/272/2 153/182/2 156/215/2 66/273/2
f 63/274/8 154/120/8 153/182/8 64/272/8
f 66/273/3 156/215/3 155/117/3 65/275/3
f 65/275/4 155/117/4 154/120/4 63/274/4
f 4/276/2 6/277/2 160/115/2 157/63/2
f 3/278/3 4/276/3 157/63/3 158/62/3
f 6/277/8 5/279/8 159/116/8 160/115/8
f 5/279/4 3/278/4 158/62/4 159/116/4
f 183/280/2 165/9/2 180/281/2
f 15/26/2 10/140/2 168/282/2 167/145/2
f 187/283/4 186/284/4 177/163/4 68/150/4
f 186/284/4 172/8/4 185/7/4
f 68/150/4 170/186/4 169/285/4
f 165/9/1 172/8/1 184/184/1 1/1/1 3/4/1 5/286/1 6/287/1 4/3/1 2/2/1 180/281/1
f 129/270/4 133/44/4 131/47/4 127/271/4
f 15/26/2 167/145/2 9/23/2
f 167/145/2 168/282/2 70/230/2 75/152/2
f 72/231/4 171/185/4 170/186/4 74/149/4
f 169/285/4 170/186/4 8/20/4
f 174/164/8 177/163/8 61/6/8 62/11/8
f 173/36/3 176/35/3 8/20/3 7/19/3 11/24/3 9/23/3
f 69/151/2 166/146/2 167/145/2
f 173/36/2 183/280/2 180/281/2 2/2/2
f 175/288/2 181/165/2 165/9/2
f 182/289/2 181/165/2 175/288/2
f 166/146/2 69/151/2 182/289/2
f 9/23/2 166/146/2 182/289/2
f 182/289/2 183/280/2 173/36/2 9/23/2
f 181/165/2 182/289/2 69/151/2 174/164/2
f 165/9/2 183/280/2 175/288/2
f 165/9/2 181/165/2 179/10/2
f 183/280/2 182/289/2 175/288/2
f 8/20/4 170/186/4 14/21/4
f 178/290/4 188/183/4 172/8/4
f 177/163/4 186/284/4 185/7/4 61/6/4
f 170/186/4 68/150/4 74/149/4
f 68/150/4 169/285/4 187/283/4
f 169/285/4 8/20/4 187/283/4
f 187/283/4 8/20/4 176/35/4 188/183/4
f 172/8/4 188/183/4 184/184/4
f 186/284/4 187/283/4 178/290/4
f 188/183/4 178/290/4 187/283/4
f 172/8/4 186/284/4 178/290/4
f 163/56/4 162/54/4 159/116/4 158/62/4
f 190/126/38 194/158/38 195/159/38 191/127/38
f 192/221/39 196/162/39 193/155/39 189/222/39
f 191/127/2 195/159/2 196/162/2 192/221/2
f 189/222/4 193/155/4 194/158/4 190/126/4
f 22/31/40 47/28/40 107/124/40 82/123/40
