# Blender v2.81 (sub 16) OBJ File: '新みかん_顔無_ボーン追加_入れ_色付け.blend'
# www.blender.org
mtllib mikan_3d.mtl
o Plane
v -0.600000 1.000000 0.360000
v -0.600000 1.000000 -0.360000
v -0.400000 1.000000 0.120000
v -0.400000 1.000000 -0.120000
v -0.200000 1.000000 0.120000
v -0.200000 1.000000 -0.120000
v -0.600000 2.228178 0.120000
v -0.600000 2.228178 0.360000
v -0.600000 2.228178 -0.360000
v -0.600000 2.443007 -0.360000
v -0.600000 2.228178 -0.120000
v -0.600000 2.443007 0.360000
v -0.600000 2.410580 0.120000
v -0.600000 2.410580 0.360000
v -0.600000 2.410580 -0.360000
v -0.600000 2.410580 -0.120000
v -0.400000 0.172433 0.120000
v -0.400000 0.172433 -0.120000
v -0.200000 0.172433 0.120000
v -0.200000 0.172433 -0.120000
v -0.400000 0.586216 -0.120000
v -0.200000 0.586216 -0.120000
v -1.735663 2.460580 -0.170000
v -1.493172 2.178177 -0.170000
v -1.493172 2.410580 0.120000
v -1.493172 2.410580 -0.120000
v -1.493172 2.228178 -0.120000
v -1.493172 2.228178 0.120000
v -0.100000 3.565796 0.120000
v -0.100000 3.565796 -0.120000
v -0.100000 4.552125 -0.120000
v -0.100000 4.552125 0.120000
v -0.158075 4.925376 -0.177075
v -0.229616 4.806141 -0.220000
v -0.158075 4.552125 -0.177075
v -0.229616 4.671359 -0.220000
v -0.158075 4.552125 0.177076
v -0.229616 4.671359 0.220000
v -0.158075 4.925376 0.177076
v -0.229616 4.806141 0.220000
v -1.735663 2.178177 -0.170000
v -1.493172 2.460580 -0.170000
v -1.493172 2.178177 0.170000
v -1.735663 2.178177 0.170000
v -1.735663 2.460580 0.170000
v -1.493172 2.460580 0.170000
v -0.200000 0.586216 0.120000
v -0.400000 0.586216 0.120000
v -1.191565 2.410580 -0.120000
v -1.191565 2.228178 -0.120000
v -1.191565 2.228178 0.120000
v -1.191565 2.410580 0.120000
v -0.420000 0.001617 -0.320000
v -0.420000 0.172433 -0.320000
v -0.180000 0.172433 -0.320000
v -0.180000 0.001617 -0.320000
v -0.420000 0.172433 0.140000
v -0.420000 0.001617 0.140000
v -0.180000 0.172433 0.140000
v -0.180000 0.001617 0.140000
v -1.049926 3.565796 -0.560000
v -1.049926 2.443007 -0.560000
v -1.049926 2.443007 0.560000
v -1.049926 3.565796 0.560000
v 0.600000 1.000000 0.360000
v 0.600000 1.000000 -0.360000
v 0.400000 1.000000 0.120000
v 0.400000 1.000000 -0.120000
v 0.200000 1.000000 0.120000
v 0.200000 1.000000 -0.120000
v 0.600000 2.228178 0.120000
v 0.600000 2.228178 0.360000
v 0.600000 2.228178 -0.360000
v 0.600000 2.443007 -0.360000
v 0.600000 2.228178 -0.120000
v 0.600000 2.443007 0.360000
v 0.600000 2.410580 0.120000
v 0.600000 2.410580 0.360000
v 0.600000 2.410580 -0.360000
v 0.600000 2.410580 -0.120000
v 0.400000 0.172433 0.120000
v 0.400000 0.172433 -0.120000
v 0.200000 0.172433 0.120000
v 0.200000 0.172433 -0.120000
v 0.400000 0.586216 -0.120000
v 0.200000 0.586216 -0.120000
v 1.735663 2.460580 -0.170000
v 1.493172 2.178177 -0.170000
v 1.493172 2.410580 0.120000
v 1.493172 2.410580 -0.120000
v 1.493172 2.228178 -0.120000
v 1.493172 2.228178 0.120000
v 0.100000 3.565796 0.120000
v 0.100000 3.565796 -0.120000
v 0.100000 4.552125 -0.120000
v 0.100000 4.552125 0.120000
v 0.158075 4.925376 -0.177075
v 0.229616 4.806141 -0.220000
v 0.158075 4.552125 -0.177075
v 0.229616 4.671359 -0.220000
v 0.158075 4.552125 0.177076
v 0.229616 4.671359 0.220000
v 0.158075 4.925376 0.177076
v 0.229616 4.806141 0.220000
v 1.735663 2.178177 -0.170000
v 1.493172 2.460580 -0.170000
v 1.493172 2.178177 0.170000
v 1.735663 2.178177 0.170000
v 1.735663 2.460580 0.170000
v 1.493172 2.460580 0.170000
v 0.200000 0.586216 0.120000
v 0.400000 0.586216 0.120000
v 1.046586 2.410580 -0.120000
v 1.046586 2.228178 -0.120000
v 1.046586 2.228178 0.120000
v 1.046586 2.410580 0.120000
v 0.420000 0.001617 -0.320000
v 0.420000 0.172433 -0.320000
v 0.180000 0.172433 -0.320000
v 0.180000 0.001617 -0.320000
v 0.420000 0.172433 0.140000
v 0.420000 0.001617 0.140000
v 0.180000 0.172433 0.140000
v 0.180000 0.001617 0.140000
v 1.049926 3.565796 -0.560000
v 1.049926 2.443007 -0.560000
v 1.043630 3.565796 -0.560000
v 1.049926 2.443007 0.560000
v 1.049926 3.565796 0.560000
v -0.699684 2.410580 -0.120000
v -0.699684 2.228178 -0.120000
v -0.699684 2.228178 0.120000
v -0.699684 2.410580 0.120000
v -0.100000 3.852802 -0.120000
v -0.100000 3.852802 0.120000
v 0.100000 3.852802 -0.120000
v 0.100000 3.852802 0.120000
v -0.100000 4.104883 -0.120000
v -0.100000 4.104883 0.120000
v 0.100000 4.104883 -0.120000
v 0.100000 4.104883 0.120000
v -0.100000 4.397623 -0.120000
v -0.100000 4.397623 0.120000
v 0.100000 4.397623 -0.120000
v 0.100000 4.397623 0.120000
v -1.049926 3.004402 -0.560000
v 1.046778 3.565796 -0.560000
v 1.049926 3.004402 -0.560000
v -0.000000 2.443007 -0.560000
v -0.003148 3.565796 -0.560000
v -1.049926 2.723704 -0.560000
v 1.048352 3.565796 -0.560000
v 1.049926 2.723704 -0.560000
v 0.524963 2.443007 -0.560000
v 0.520241 3.565796 -0.560000
v -1.049926 3.285099 -0.560000
v 1.045204 3.565796 -0.560000
v 1.049926 3.285099 -0.560000
v -0.524963 2.443007 -0.560000
v -0.526537 3.565796 -0.560000
vt 0.516774 0.081095
vt 0.549116 0.084142
vt 0.538087 0.088861
vt 0.526813 0.087789
vt 0.525082 0.109631
vt 0.513576 0.114481
vt 0.525997 0.093606
vt 0.537606 0.094742
vt 0.543883 0.115413
vt 0.535505 0.110223
vt 0.535997 0.105188
vt 0.525352 0.104281
vt 0.227268 0.066646
vt 0.226518 0.076084
vt 0.220484 0.070979
vt 0.220826 0.070024
vt 0.519125 0.039723
vt 0.479692 0.045898
vt 0.468941 0.033871
vt 0.517752 0.030782
vt 0.585324 0.041617
vt 0.547793 0.037147
vt 0.547961 0.029274
vt 0.597034 0.027204
vt 0.090578 0.142047
vt 0.097255 0.142453
vt 0.064332 0.036704
vt 0.132542 0.024313
vt 0.106296 0.118515
vt 0.099619 0.118109
vt 0.132542 0.223858
vt 0.064332 0.236249
vt 0.083038 0.838117
vt 0.083561 0.837733
vt 0.084133 0.837734
vt 0.084472 0.838312
vt 0.063653 0.534407
vt 0.109667 0.408751
vt 0.115677 0.407075
vt 0.185164 0.708848
vt 0.154786 0.665238
vt 0.124409 0.621628
vt 0.094031 0.578018
vt 0.874054 0.938498
vt 0.874054 0.897390
vt 0.950803 0.897390
vt 0.950803 0.938498
vt 0.762657 0.994205
vt 0.747373 0.969170
vt 0.830579 0.969170
vt 0.815294 0.994205
vt 0.105418 0.406886
vt 0.082105 0.430518
vt 0.212498 0.073634
vt 0.218939 0.070256
vt 0.213248 0.064195
vt 0.219282 0.069300
vt 0.932824 0.170600
vt 0.904966 0.031657
vt 0.910842 0.032538
vt 0.927059 0.167707
vt 0.152337 0.114633
vt 0.142285 0.022169
vt 0.113046 0.391780
vt 0.123485 0.396027
vt 0.125015 0.398644
vt 0.714344 0.919907
vt 0.593481 0.919907
vt 0.612310 0.893279
vt 0.695515 0.893279
vt 0.747373 0.894631
vt 0.830579 0.894631
vt 0.849407 0.921259
vt 0.728544 0.921259
vt 0.096063 0.824713
vt 0.076832 0.822555
vt 0.054604 0.778882
vt 0.138086 0.775967
vt 0.084822 0.836315
vt 0.084372 0.836766
vt 0.627594 0.992853
vt 0.612310 0.967817
vt 0.695515 0.967817
vt 0.680231 0.992853
vt 0.949017 0.041144
vt 0.950762 0.040752
vt 0.950762 0.161796
vt 0.948905 0.158074
vt 0.728544 0.942542
vt 0.849407 0.942542
vt 0.593481 0.941190
vt 0.714344 0.941190
vt 0.375081 0.946764
vt 0.583104 0.946764
vt 0.562810 0.975464
vt 0.395375 0.975464
vt 0.583104 0.923824
vt 0.375081 0.923824
vt 0.395375 0.895124
vt 0.562810 0.895124
vt 0.973487 0.027300
vt 0.981867 0.011673
vt 0.965299 0.149698
vt 0.965299 0.052850
vt 0.970659 0.045707
vt 0.970659 0.156841
vt 0.981867 0.190875
vt 0.971322 0.178437
vt 0.930124 0.185670
vt 0.938513 0.173529
vt 0.297481 0.118110
vt 0.287429 0.025647
vt 0.099672 0.128139
vt 0.095454 0.130834
vt 0.097203 0.132423
vt 0.101420 0.129728
vt 0.889351 0.038222
vt 0.922321 0.168014
vt 0.914824 0.165134
vt 0.895046 0.040305
vt 0.938513 0.016410
vt 0.937754 0.014962
vt 0.920228 0.127418
vt 0.929347 0.122172
vt 0.937182 0.019834
vt 0.905011 0.032810
vt 0.466553 0.031435
vt 0.599599 0.024392
vt 0.225691 0.165315
vt 0.298592 0.126736
vt 0.284107 0.218612
vt 0.225988 0.174779
vt 0.597036 0.169846
vt 0.584841 0.154713
vt 0.517342 0.156968
vt 0.516067 0.165576
vt 0.470390 0.162354
vt 0.481204 0.151049
vt 0.545552 0.167278
vt 0.545390 0.159520
vt 0.050195 0.161893
vt 0.007494 0.050009
vt 0.056366 0.060900
vt 0.037169 0.165630
vt 0.013666 0.125874
vt 0.056366 0.237758
vt 0.007494 0.226866
vt 0.026692 0.122137
vt 0.108079 0.372169
vt 0.112861 0.375879
vt 0.088244 0.384310
vt 0.089903 0.376543
vt 0.136868 0.444357
vt 0.107747 0.393670
vt 0.041904 0.292914
vt 0.065645 0.330775
vt 0.089386 0.368635
vt 0.113127 0.406496
vt 0.138745 0.396798
vt 0.133936 0.389434
vt 0.139290 0.444867
vt 0.150759 0.510862
vt 0.162227 0.576858
vt 0.173696 0.642853
vt 0.105060 0.395969
vt 0.073968 0.378186
vt 0.138963 0.215135
vt 0.211865 0.176556
vt 0.211567 0.167092
vt 0.153448 0.123259
vt 0.218137 0.171746
vt 0.217841 0.170775
vt 0.468104 0.164647
vt 0.342463 0.978689
vt 0.315479 0.995163
vt 0.202012 0.995163
vt 0.175028 0.978689
vt 0.083425 0.836080
vt 0.083720 0.836593
vt 0.422359 0.991938
vt 0.535826 0.991938
vt 0.852758 0.026130
vt 0.859630 0.173206
vt 0.864631 0.183058
vt 0.864631 0.013559
vt 0.362757 0.949989
vt 0.154734 0.949989
vt 0.154734 0.927049
vt 0.175028 0.898349
vt 0.342463 0.898349
vt 0.362757 0.927049
vt 0.831263 0.048598
vt 0.829567 0.050891
vt 0.849843 0.205945
vt 0.850430 0.182803
vt 0.847099 0.063997
vt 0.851859 0.056188
vt 0.838655 0.176661
vt 0.839513 0.168574
vt 0.884764 0.034713
vt 0.892491 0.023427
vt 0.219715 0.171097
vt 0.901825 0.083021
vt 0.893980 0.083878
vt 0.219418 0.170126
vt 0.027986 0.140462
vt 0.037385 0.144884
vt 0.035875 0.147305
vt 0.026476 0.142883
vt 0.886300 0.179220
vt 0.884764 0.197119
vt 0.922736 0.167867
vt 0.887167 0.193286
vt 0.599599 0.172775
vt 0.139008 0.689616
vt 0.138470 0.586441
vt 0.137932 0.483267
vt 0.137395 0.380093
vt 0.136857 0.276918
vt 0.334040 0.276918
vt 0.531223 0.276918
vt 0.728406 0.276918
vt 0.925589 0.276918
vt 0.926639 0.380097
vt 0.927690 0.483276
vt 0.928740 0.586455
vt 0.929790 0.689634
vt 0.733199 0.689633
vt 0.536607 0.689633
vt 0.340016 0.689633
vt 0.143424 0.689633
vt 0.142320 0.689629
vt 0.141216 0.689624
vt 0.140112 0.689620
vt 0.058216 0.474034
vt 0.052779 0.413660
vt 0.047342 0.353287
vt 0.137473 0.444485
vt 0.138079 0.444612
vt 0.138685 0.444739
vt 0.099512 0.130096
vt 0.099210 0.129493
vt 0.097362 0.130466
vt 0.097665 0.131068
vt 0.069621 0.850530
vt 0.011966 0.899802
vt 0.138086 0.945080
vt 0.092997 0.855291
vt 0.087590 0.833477
vt 0.081782 0.832572
vt 0.079920 0.841111
vt 0.086393 0.842231
vn 0.0000 -1.0000 0.0000
vn 0.0000 0.0000 -1.0000
vn -1.0000 0.0000 0.0000
vn 0.0000 0.0000 1.0000
vn 0.0000 1.0000 0.0000
vn 1.0000 0.0000 0.0000
vn 0.0000 0.3387 0.9409
vn 0.0000 0.3387 -0.9409
vn 0.0000 -0.3387 -0.9409
vn 0.0000 -0.3387 0.9409
vn -0.8575 -0.5145 0.0000
vn -0.8575 0.5145 0.0000
vn 0.8575 -0.5145 0.0000
vn 0.8575 0.5145 0.0000
usemtl マテリアル
s off
f 1/1/1 2/2/1 4/3/1 3/4/1
f 67/5/1 65/6/1 1/1/1 3/4/1 5/7/1 6/8/1 4/3/1 2/2/1 66/9/1 68/10/1 70/11/1 69/12/1
f 21/13/2 22/14/2 20/15/2 18/16/2
f 68/10/1 66/9/1 65/6/1 67/5/1
f 7/17/3 8/18/3 14/19/3 13/20/3
f 9/21/3 11/22/3 16/23/3 15/24/3
f 51/25/4 52/26/4 25/27/4 28/28/4
f 49/29/2 50/30/2 27/31/2 26/32/2
f 2/2/3 1/1/3 8/18/3 7/17/3 11/22/3 9/21/3
f 145/33/4 96/34/4 32/35/4 143/36/4
f 62/37/3 63/38/3 64/39/3 61/40/3 156/41/3 146/42/3 151/43/3
f 97/44/5 33/45/5 39/46/5 103/47/5
f 31/48/1 35/49/1 99/50/1 95/51/1
f 50/30/1 51/25/1 28/28/1 27/31/1
f 52/26/5 49/29/5 26/32/5 25/27/5
f 12/52/1 63/38/1 62/37/1 10/53/1
f 22/14/6 47/54/6 19/55/6 20/15/6
f 48/56/3 21/13/3 18/16/3 17/57/3
f 47/54/4 48/56/4 17/57/4 19/55/4
f 55/58/6 59/59/6 60/60/6 56/61/6
f 5/62/4 3/63/4 48/56/4 47/54/4
f 64/39/5 129/64/5 93/65/5 29/66/5
f 40/67/7 104/68/7 103/69/7 39/70/7
f 33/71/8 97/72/8 98/73/8 34/74/8
f 134/75/2 136/76/2 94/77/2 30/78/2
f 142/79/3 143/36/3 32/35/3 31/80/3
f 96/81/1 101/82/1 37/83/1 32/84/1
f 28/85/6 43/86/6 24/87/6 27/88/6
f 36/89/9 100/90/9 99/50/9 35/49/9
f 34/74/2 98/73/2 100/90/2 36/89/2
f 101/82/10 102/91/10 38/92/10 37/83/10
f 38/92/4 102/91/4 104/68/4 40/67/4
f 38/93/11 36/94/11 35/95/11 37/96/11
f 34/97/12 40/98/12 39/99/12 33/100/12
f 36/94/3 38/93/3 40/98/3 34/97/3
f 43/86/6 28/85/6 25/101/6 46/102/6
f 41/103/3 44/104/3 45/105/3 23/106/3
f 43/86/1 44/104/1 41/103/1 24/87/1
f 46/102/5 42/107/5 23/106/5 45/105/5
f 42/107/2 24/87/2 41/103/2 23/106/2
f 45/105/4 44/104/4 43/86/4 46/102/4
f 46/102/6 25/101/6 26/108/6 42/107/6
f 54/109/2 55/58/2 56/61/2 53/110/2
f 6/111/6 5/62/6 47/54/6 22/14/6
f 3/63/3 4/112/3 21/13/3 48/56/3
f 4/112/2 6/111/2 22/14/2 21/13/2
f 133/113/5 130/114/5 49/29/5 52/26/5
f 131/115/1 132/116/1 51/25/1 50/30/1
f 130/114/2 131/115/2 50/30/2 49/29/2
f 132/116/4 133/113/4 52/26/4 51/25/4
f 118/117/6 121/118/6 122/119/6 117/120/6
f 57/121/4 58/122/4 60/60/4 59/59/4
f 54/109/5 18/123/5 20/124/5 55/58/5
f 58/122/1 53/110/1 56/61/1 60/60/1
f 17/125/5 18/123/5 54/109/5 57/121/5 59/59/5 55/58/5 20/124/5 19/126/5
f 53/110/3 58/122/3 57/121/3 54/109/3
f 12/127/3 10/128/3 15/24/3 16/23/3 13/20/3 14/19/3
f 85/129/2 82/130/2 84/131/2 86/132/2
f 15/24/2 79/133/2 73/134/2 9/21/2
f 71/135/6 77/136/6 78/137/6 72/138/6
f 73/134/6 79/133/6 80/139/6 75/140/6
f 115/141/4 92/142/4 89/143/4 116/144/4
f 113/145/2 90/146/2 91/147/2 114/148/2
f 75/140/6 71/135/6 72/138/6 65/6/6 66/9/6 73/134/6
f 9/21/2 73/134/2 66/9/2 2/2/2
f 76/149/1 128/150/1 63/151/1 12/152/1
f 125/153/6 129/64/6 128/154/6 126/155/6 153/156/6 148/157/6 158/158/6
f 61/40/5 30/159/5 94/160/5 127/161/5 155/162/5 150/163/5 160/164/5
f 29/66/5 30/159/5 61/40/5 64/39/5
f 114/148/1 91/147/1 92/142/1 115/141/1
f 116/144/5 89/143/5 90/146/5 113/145/5
f 126/155/1 128/154/1 76/165/1 74/166/1
f 86/132/3 84/131/3 83/167/3 111/168/3
f 112/169/6 81/170/6 82/130/6 85/129/6
f 111/168/4 83/167/4 81/170/4 112/169/4
f 69/171/4 111/168/4 112/169/4 67/172/4
f 76/173/4 12/127/4 14/19/4 78/137/4
f 72/138/4 8/18/4 1/1/4 65/6/4
f 72/138/4 78/137/4 14/19/4 8/18/4
f 101/174/1 96/175/1 95/176/1 99/177/1
f 144/178/6 95/179/6 96/34/6 145/33/6
f 32/180/1 37/96/1 35/95/1 31/181/1
f 92/182/3 91/183/3 88/184/3 107/185/3
f 27/88/6 24/87/6 42/107/6 26/108/6
f 102/186/13 101/174/13 99/177/13 100/187/13
f 98/188/14 97/189/14 103/190/14 104/191/14
f 100/187/6 98/188/6 104/191/6 102/186/6
f 107/185/3 110/192/3 89/193/3 92/182/3
f 105/194/6 87/195/6 109/196/6 108/197/6
f 107/185/1 88/184/1 105/194/1 108/197/1
f 110/192/5 109/196/5 87/195/5 106/198/5
f 106/198/2 87/195/2 105/194/2 88/184/2
f 109/196/4 110/192/4 107/185/4 108/197/4
f 88/184/3 91/183/3 90/199/3 106/198/3
f 106/198/3 90/199/3 89/193/3 110/192/3
f 117/120/2 120/200/2 119/201/2 118/117/2
f 70/202/3 86/132/3 111/168/3 69/171/3
f 118/117/5 119/201/5 84/203/5 82/204/5
f 67/172/6 112/169/6 85/129/6 68/205/6
f 68/205/2 85/129/2 86/132/2 70/202/2
f 77/206/5 116/144/5 113/145/5 80/207/5
f 75/208/1 114/148/1 115/141/1 71/209/1
f 80/207/2 113/145/2 114/148/2 75/208/2
f 71/209/4 115/141/4 116/144/4 77/206/4
f 120/200/3 124/210/3 123/211/3 119/201/3
f 118/117/5 82/204/5 81/212/5 83/213/5 84/203/5 119/201/5 123/211/5 121/118/5
f 121/118/4 123/211/4 124/210/4 122/119/4
f 122/119/1 124/210/1 120/200/1 117/120/1
f 77/136/6 80/139/6 79/133/6 74/214/6 76/173/6 78/137/6
f 15/24/2 10/128/2 74/214/2 79/133/2
f 125/215/2 158/216/2 148/217/2 153/218/2 126/219/2 154/220/2 149/221/2 159/222/2 62/223/2 151/224/2 146/225/2 156/226/2 61/227/2 160/228/2 150/229/2 155/230/2 127/231/2 157/232/2 147/233/2 152/234/2
f 126/155/1 74/166/1 10/53/1 62/37/1 159/235/1 149/236/1 154/237/1
f 129/64/4 64/39/4 63/38/4 128/154/4
f 93/65/5 129/64/5 125/153/5 152/238/5 147/239/5 157/240/5 127/161/5 94/160/5
f 7/241/4 13/242/4 133/113/4 132/116/4
f 16/243/2 11/244/2 131/115/2 130/114/2
f 11/244/1 7/241/1 132/116/1 131/115/1
f 13/242/5 16/243/5 130/114/5 133/113/5
f 94/77/6 136/76/6 137/245/6 93/246/6
f 30/78/3 29/247/3 135/248/3 134/75/3
f 138/249/2 140/250/2 136/76/2 134/75/2
f 93/246/4 137/245/4 135/248/4 29/247/4
f 142/79/2 144/178/2 140/250/2 138/249/2
f 136/76/6 140/250/6 141/251/6 137/245/6
f 134/75/3 135/248/3 139/252/3 138/249/3
f 137/245/4 141/251/4 139/252/4 135/248/4
f 31/80/2 95/179/2 144/178/2 142/79/2
f 140/250/6 144/178/6 145/33/6 141/251/6
f 138/249/3 139/252/3 143/36/3 142/79/3
f 141/251/4 145/33/4 143/36/4 139/252/4
